<svg width="22" height="22" viewBox="0 0 22 22" fill="none" xmlns="http://www.w3.org/2000/svg">
<path d="M11.4231 5.60938C8.4231 5.60938 6.03247 8.04688 6.03247 11C6.03247 14 8.4231 16.3906 11.4231 16.3906C14.3762 16.3906 16.8137 14 16.8137 11C16.8137 8.04688 14.3762 5.60938 11.4231 5.60938ZM11.4231 14.5156C9.50122 14.5156 7.90747 12.9688 7.90747 11C7.90747 9.07812 9.45435 7.53125 11.4231 7.53125C13.345 7.53125 14.8918 9.07812 14.8918 11C14.8918 12.9688 13.345 14.5156 11.4231 14.5156ZM18.2668 5.42188C18.2668 4.71875 17.7043 4.15625 17.0012 4.15625C16.2981 4.15625 15.7356 4.71875 15.7356 5.42188C15.7356 6.125 16.2981 6.6875 17.0012 6.6875C17.7043 6.6875 18.2668 6.125 18.2668 5.42188ZM21.8293 6.6875C21.7356 5 21.3606 3.5 20.1418 2.28125C18.9231 1.0625 17.4231 0.6875 15.7356 0.59375C14.0012 0.5 8.7981 0.5 7.06372 0.59375C5.37622 0.6875 3.9231 1.0625 2.65747 2.28125C1.43872 3.5 1.06372 5 0.969971 6.6875C0.876221 8.42188 0.876221 13.625 0.969971 15.3594C1.06372 17.0469 1.43872 18.5 2.65747 19.7656C3.9231 20.9844 5.37622 21.3594 7.06372 21.4531C8.7981 21.5469 14.0012 21.5469 15.7356 21.4531C17.4231 21.3594 18.9231 20.9844 20.1418 19.7656C21.3606 18.5 21.7356 17.0469 21.8293 15.3594C21.9231 13.625 21.9231 8.42188 21.8293 6.6875ZM19.5793 17.1875C19.2512 18.125 18.5012 18.8281 17.6106 19.2031C16.2043 19.7656 12.9231 19.625 11.4231 19.625C9.87622 19.625 6.59497 19.7656 5.2356 19.2031C4.2981 18.8281 3.59497 18.125 3.21997 17.1875C2.65747 15.8281 2.7981 12.5469 2.7981 11C2.7981 9.5 2.65747 6.21875 3.21997 4.8125C3.59497 3.92188 4.2981 3.21875 5.2356 2.84375C6.59497 2.28125 9.87622 2.42188 11.4231 2.42188C12.9231 2.42188 16.2043 2.28125 17.6106 2.84375C18.5012 3.17188 19.2043 3.92188 19.5793 4.8125C20.1418 6.21875 20.0012 9.5 20.0012 11C20.0012 12.5469 20.1418 15.8281 19.5793 17.1875Z" fill="white"/>
</svg>
