<svg width="25" height="20" viewBox="0 0 25 20" fill="none" xmlns="http://www.w3.org/2000/svg">
<path d="M22.4387 5.125C23.3762 4.42188 24.22 3.57812 24.8762 2.59375C24.0325 2.96875 23.0481 3.25 22.0637 3.34375C23.095 2.73438 23.845 1.79688 24.22 0.625C23.2825 1.1875 22.2043 1.60938 21.1262 1.84375C20.1887 0.859375 18.9231 0.296875 17.5168 0.296875C14.7981 0.296875 12.595 2.5 12.595 5.21875C12.595 5.59375 12.6418 5.96875 12.7356 6.34375C8.65747 6.10938 5.00122 4.14062 2.56372 1.1875C2.14185 1.89062 1.90747 2.73438 1.90747 3.67188C1.90747 5.35938 2.75122 6.85938 4.1106 7.75C3.31372 7.70312 2.51685 7.51562 1.8606 7.14062V7.1875C1.8606 9.57812 3.5481 11.5469 5.7981 12.0156C5.4231 12.1094 4.95435 12.2031 4.53247 12.2031C4.20435 12.2031 3.9231 12.1562 3.59497 12.1094C4.20435 14.0781 6.03247 15.4844 8.18872 15.5312C6.50122 16.8438 4.39185 17.6406 2.09497 17.6406C1.6731 17.6406 1.2981 17.5938 0.923096 17.5469C3.07935 18.9531 5.65747 19.75 8.46997 19.75C17.5168 19.75 22.4387 12.2969 22.4387 5.78125C22.4387 5.54688 22.4387 5.35938 22.4387 5.125Z" fill="white"/>
</svg>
